<svg xmlns="http://www.w3.org/2000/svg" width="84" height="84" viewBox="0 0 48 48" fill="none">

  <defs>
    <linearGradient id="cotrip-main" x1="4" y1="4" x2="44" y2="44" gradientUnits="userSpaceOnUse">
      <stop stop-color="#4F7CFF"/>
      <stop offset="1" stop-color="#7B61FF"/>
    </linearGradient>
    <linearGradient id="cotrip-accent" x1="4" y1="4" x2="44" y2="44" gradientUnits="userSpaceOnUse">
      <stop stop-color="#FF9A3C"/>
      <stop offset="1" stop-color="#FF6B6B"/>
    </linearGradient>
  </defs>
<g transform="translate(2 3) scale(.82)"><path fill-rule="evenodd" clip-rule="evenodd" d="M24 44C35.0457 44 44 35.0457 44 24C44 12.9543 35.0457 4 24 4C12.9543 4 4 12.9543 4 24C4 35.0457 12.9543 44 24 44Z" stroke="url(#cotrip-main)" stroke-width="2" stroke-linecap="round" stroke-linejoin="round"/><path d="M4 24H44" stroke="url(#cotrip-main)" stroke-width="2" stroke-linecap="round" stroke-linejoin="round"/><path fill-rule="evenodd" clip-rule="evenodd" d="M24 44C28.4183 44 32 35.0457 32 24C32 12.9543 28.4183 4 24 4C19.5817 4 16 12.9543 16 24C16 35.0457 19.5817 44 24 44Z" stroke="url(#cotrip-main)" stroke-width="2" stroke-linecap="round" stroke-linejoin="round"/><path d="M9.85791 10.1421C13.4772 13.7614 18.4772 16 24 16C29.5229 16 34.5229 13.7614 38.1422 10.1421" stroke="url(#cotrip-main)" stroke-width="2" stroke-linecap="round" stroke-linejoin="round"/><path d="M38.1422 37.8579C34.5229 34.2386 29.5229 32 24 32C18.4772 32 13.4772 34.2386 9.85791 37.8579" stroke="url(#cotrip-main)" stroke-width="2" stroke-linecap="round" stroke-linejoin="round"/></g>
  <g transform="translate(27 25) scale(.42)"><path d="M24 44C24 44 39 32 39 19C39 10.7157 32.2843 4 24 4C15.7157 4 9 10.7157 9 19C9 32 24 44 24 44Z" fill="#FFFFFF" stroke="url(#cotrip-accent)" stroke-width="2" stroke-linejoin="round"/><path d="M24 25C27.3137 25 30 22.3137 30 19C30 15.6863 27.3137 13 24 13C20.6863 13 18 15.6863 18 19C18 22.3137 20.6863 25 24 25Z" fill="#FFFFFF" stroke="url(#cotrip-accent)" stroke-width="2" stroke-linejoin="round"/></g>
</svg>
