<svg xmlns="http://www.w3.org/2000/svg" width="84" height="84" viewBox="0 0 48 48" fill="none">

  <defs>
    <linearGradient id="cotrip-main" x1="4" y1="4" x2="44" y2="44" gradientUnits="userSpaceOnUse">
      <stop stop-color="#4F7CFF"/>
      <stop offset="1" stop-color="#7B61FF"/>
    </linearGradient>
    <linearGradient id="cotrip-accent" x1="4" y1="4" x2="44" y2="44" gradientUnits="userSpaceOnUse">
      <stop stop-color="#FF9A3C"/>
      <stop offset="1" stop-color="#FF6B6B"/>
    </linearGradient>
  </defs>
<path d="M24 44C24 44 39 32 39 19C39 10.7157 32.2843 4 24 4C15.7157 4 9 10.7157 9 19C9 32 24 44 24 44Z" fill="none" stroke="url(#cotrip-main)" stroke-width="2" stroke-linejoin="round"/><path d="M24 25C27.3137 25 30 22.3137 30 19C30 15.6863 27.3137 13 24 13C20.6863 13 18 15.6863 18 19C18 22.3137 20.6863 25 24 25Z" fill="none" stroke="url(#cotrip-main)" stroke-width="2" stroke-linejoin="round"/>
</svg>
